{
  "accessors": [
    {
      "bufferView": 2,
      "componentType": 5126,
      "count": 26180,
      "max": [
        3.39349365234375,
        2.7800049781799316,
        6.3020138740539551
      ],
      "min": [
        -3.899294376373291,
        -0.22000026702880859,
        -6.3489952087402344
      ],
      "type": "VEC3"
    },
    {
      "bufferView": 2,
      "byteOffset": 314160,
      "componentType": 5126,
      "count": 26180,
      "max": [
        1,
        1,
        1
      ],
      "min": [
        -1,
        -1,
        -1
      ],
      "type": "VEC3"
    },
    {
      "bufferView": 3,
      "componentType": 5126,
      "count": 26180,
      "max": [
        1,
        1,
        1,
        1
      ],
      "min": [
        0,
        0,
        0,
        1
      ],
      "type": "VEC4"
    },
    {
      "bufferView": 1,
      "componentType": 5126,
      "count": 26180,
      "max": [
        0.99124133586883545,
        0.99868959188461304
      ],
      "min": [
        0.0013104014797136188,
        0.0013104081153869629
      ],
      "type": "VEC2"
    },
    {
      "bufferView": 1,
      "byteOffset": 209440,
      "componentType": 5126,
      "count": 26180,
      "max": [
        0.99124133586883545,
        0.99868959188461304
      ],
      "min": [
        0.0013104014797136188,
        0.0013104081153869629
      ],
      "type": "VEC2"
    },
    {
      "bufferView": 1,
      "byteOffset": 418880,
      "componentType": 5126,
      "count": 26180,
      "max": [
        0.99124133586883545,
        0.99868959188461304
      ],
      "min": [
        0.0013104014797136188,
        0.0013104081153869629
      ],
      "type": "VEC2"
    },
    {
      "bufferView": 1,
      "byteOffset": 628320,
      "componentType": 5126,
      "count": 26180,
      "max": [
        0.99124133586883545,
        0.99868959188461304
      ],
      "min": [
        0.0013104014797136188,
        0.0013104081153869629
      ],
      "type": "VEC2"
    },
    {
      "bufferView": 0,
      "componentType": 5125,
      "count": 86259,
      "max": [
        26179
      ],
      "min": [
        0
      ],
      "type": "SCALAR"
    },
    {
      "bufferView": 2,
      "byteOffset": 628320,
      "componentType": 5126,
      "count": 7596,
      "max": [
        1.0498025417327881,
        1.8487308025360107,
        3.3708724975585938
      ],
      "min": [
        -3.4761595726013184,
        0.00056350370869040489,
        -1.6003397703170776
      ],
      "type": "VEC3"
    },
    {
      "bufferView": 2,
      "byteOffset": 719472,
      "componentType": 5126,
      "count": 7596,
      "max": [
        0.99996763467788696,
        1,
        0.99993395805358887
      ],
      "min": [
        -0.99996769428253174,
        -0.99941140413284302,
        -0.99993395805358887
      ],
      "type": "VEC3"
    },
    {
      "bufferView": 3,
      "byteOffset": 418880,
      "componentType": 5126,
      "count": 7596,
      "max": [
        1,
        1,
        1,
        1
      ],
      "min": [
        0,
        0,
        0,
        1
      ],
      "type": "VEC4"
    },
    {
      "bufferView": 1,
      "byteOffset": 837760,
      "componentType": 5126,
      "count": 7596,
      "max": [
        0.99810361862182617,
        0.99810367822647095
      ],
      "min": [
        0.0018962944159284234,
        0.0019552111625671387
      ],
      "type": "VEC2"
    },
    {
      "bufferView": 1,
      "byteOffset": 898528,
      "componentType": 5126,
      "count": 7596,
      "max": [
        0.99810361862182617,
        0.99810367822647095
      ],
      "min": [
        0.0018962944159284234,
        0.0019552111625671387
      ],
      "type": "VEC2"
    },
    {
      "bufferView": 1,
      "byteOffset": 959296,
      "componentType": 5126,
      "count": 7596,
      "max": [
        0.99810361862182617,
        0.99810367822647095
      ],
      "min": [
        0.0018962944159284234,
        0.0019552111625671387
      ],
      "type": "VEC2"
    },
    {
      "bufferView": 0,
      "byteOffset": 345036,
      "componentType": 5125,
      "count": 24018,
      "max": [
        7595
      ],
      "min": [
        0
      ],
      "type": "SCALAR"
    }
  ],
  "asset": {
    "extras": {
      "author": "guismo (https://sketchfab.com/guismo)",
      "license": "CC-BY-4.0 (http://creativecommons.org/licenses/by/4.0/)",
      "source": "https://sketchfab.com/3d-models/export-gltf-1255425b545c4b8ebacac44a99e3a46e",
      "title": "Export Gltf"
    },
    "generator": "Sketchfab-9.72.0",
    "version": "2.0"
  },
  "bufferViews": [
    {
      "buffer": 0,
      "byteLength": 441108,
      "byteOffset": 0,
      "name": "floatBufferViews",
      "target": 34963
    },
    {
      "buffer": 0,
      "byteLength": 1020064,
      "byteOffset": 441108,
      "byteStride": 8,
      "name": "floatBufferViews",
      "target": 34962
    },
    {
      "buffer": 0,
      "byteLength": 810624,
      "byteOffset": 1461172,
      "byteStride": 12,
      "name": "floatBufferViews",
      "target": 34962
    },
    {
      "buffer": 0,
      "byteLength": 540416,
      "byteOffset": 2271796,
      "byteStride": 16,
      "name": "floatBufferViews",
      "target": 34962
    }
  ],
  "buffers": [
    {
      "byteLength": 2812212,
      "uri": "scene.bin"
    }
  ],
  "images": [
    {
      "uri": "textures/opaque_metallicRoughness.png"
    },
    {
      "uri": "textures/opaque_emissive.png"
    },
    {
      "uri": "textures/transparent_baseColor.png"
    },
    {
      "uri": "textures/transparent_metallicRoughness.png"
    },
    {
      "uri": "textures/transparent_emissive.png"
    }
  ],
  "materials": [
    {
      "doubleSided": false,
      "emissiveFactor": [
        1,
        1,
        1
      ],
      "emissiveTexture": {
        "index": 1,
        "texCoord": 1
      },
      "name": "opaque",
      "occlusionTexture": {
        "index": 0,
        "strength": 1,
        "texCoord": 0
      },
      "pbrMetallicRoughness": {
        "baseColorFactor": [
          0,
          0,
          0,
          1
        ],
        "metallicFactor": 1,
        "metallicRoughnessTexture": {
          "index": 0,
          "texCoord": 0
        },
        "roughnessFactor": 1
      }
    },
    {
      "alphaMode": "BLEND",
      "doubleSided": false,
      "emissiveFactor": [
        1,
        1,
        1
      ],
      "emissiveTexture": {
        "index": 4,
        "texCoord": 0
      },
      "name": "transparent",
      "pbrMetallicRoughness": {
        "baseColorFactor": [
          0,
          0,
          0,
          1
        ],
        "baseColorTexture": {
          "index": 2,
          "texCoord": 0
        },
        "metallicFactor": 1,
        "metallicRoughnessTexture": {
          "index": 3,
          "texCoord": 0
        },
        "roughnessFactor": 1
      }
    }
  ],
  "meshes": [
    {
      "primitives": [
        {
          "attributes": {
            "COLOR_0": 2,
            "NORMAL": 1,
            "POSITION": 0,
            "TEXCOORD_0": 3,
            "TEXCOORD_1": 4,
            "TEXCOORD_2": 5,
            "TEXCOORD_3": 6
          },
          "indices": 7,
          "material": 0,
          "mode": 4
        }
      ]
    },
    {
      "primitives": [
        {
          "attributes": {
            "COLOR_0": 10,
            "NORMAL": 9,
            "POSITION": 8,
            "TEXCOORD_0": 11,
            "TEXCOORD_1": 12,
            "TEXCOORD_2": 13
          },
          "indices": 14,
          "material": 1,
          "mode": 4
        }
      ]
    }
  ],
  "nodes": [
    {
      "children": [
        1
      ],
      "name": "RootNode (gltf orientation matrix)",
      "rotation": [
        -0.70710678118654746,
        -0,
        -0,
        0.70710678118654757
      ]
    },
    {
      "children": [
        2
      ],
      "name": "RootNode (model correction matrix)"
    },
    {
      "children": [
        3
      ],
      "name": "root"
    },
    {
      "children": [
        4,
        6
      ],
      "matrix": [
        1,
        0,
        0,
        0,
        0,
        2.2204460492503131e-16,
        1,
        0,
        0,
        -1,
        2.2204460492503131e-16,
        0,
        0,
        0,
        0,
        1
      ],
      "name": "GLTF_SceneRootNode"
    },
    {
      "children": [
        5
      ],
      "name": "opaque_0"
    },
    {
      "mesh": 0,
      "name": ""
    },
    {
      "children": [
        7
      ],
      "matrix": [
        1.5,
        0,
        0,
        0,
        0,
        1.5151786804199219,
        0,
        0,
        0,
        0,
        1.5,
        0,
        1.267441987991333,
        0,
        -3.7354726791381836,
        1
      ],
      "name": "transparent_1"
    },
    {
      "mesh": 1,
      "name": ""
    }
  ],
  "samplers": [
    {
      "magFilter": 9729,
      "minFilter": 9987,
      "wrapS": 10497,
      "wrapT": 10497
    }
  ],
  "scene": 0,
  "scenes": [
    {
      "name": "OSG_Scene",
      "nodes": [
        0
      ]
    }
  ],
  "textures": [
    {
      "sampler": 0,
      "source": 0
    },
    {
      "sampler": 0,
      "source": 1
    },
    {
      "sampler": 0,
      "source": 2
    },
    {
      "sampler": 0,
      "source": 3
    },
    {
      "sampler": 0,
      "source": 4
    }
  ]
}

